<svg width="50" height="50" viewBox="0 0 50 50" fill="none" xmlns="http://www.w3.org/2000/svg">
<path d="M50 25C50 11.1929 38.8071 0 25 0V0C11.1929 0 1.63913e-06 11.1929 1.63913e-06 25V25C1.63913e-06 38.8071 11.1929 50 25 50V50C38.8071 50 50 38.8071 50 25V25Z" fill="#343645"/>
<path d="M25.6336 37.6832C22.1185 37.6832 18.6034 37.1618 15.2694 36.1189C14.0022 35.7102 13.0366 34.8787 12.6142 33.7935C12.1767 32.7083 12.3276 31.5104 13.0216 30.4394L14.7565 27.7476C15.1185 27.1838 15.4504 26.0564 15.4504 25.394V21.3211C15.4504 16.0784 20.0216 11.8082 25.6336 11.8082C31.2457 11.8082 35.8168 16.0784 35.8168 21.3211V25.394C35.8168 26.0423 36.1487 27.1838 36.5108 27.7617L38.2306 30.4394C38.8793 31.4541 39 32.6802 38.5625 33.7935C38.125 34.9069 37.1746 35.7525 35.9828 36.1189C32.6638 37.1618 29.1487 37.6832 25.6336 37.6832ZM25.6336 13.9222C21.2737 13.9222 17.7134 17.2341 17.7134 21.3211V25.394C17.7134 26.4228 17.2608 27.9449 16.7026 28.8327L14.9677 31.5245C14.6358 32.046 14.5453 32.5956 14.7414 33.0607C14.9224 33.5398 15.375 33.9063 15.9935 34.1036C22.2996 36.0766 28.9828 36.0766 35.2888 34.1036C35.8319 33.9344 36.2543 33.5539 36.4504 33.0466C36.6466 32.5392 36.6013 31.9896 36.2996 31.5245L34.5647 28.8327C33.9914 27.9167 33.5539 26.4087 33.5539 25.3799V21.3211C33.5539 17.2341 30.0086 13.9222 25.6336 13.9222Z" fill="#97A3AB"/>
<path d="M28.4397 14.3027C28.3341 14.3027 28.2285 14.2886 28.1228 14.2604C27.6853 14.1476 27.2629 14.0631 26.8556 14.0067C25.5733 13.8517 24.3362 13.9362 23.1746 14.2604C22.7522 14.3872 22.2996 14.2604 22.0129 13.9644C21.7263 13.6685 21.6358 13.2457 21.8017 12.8652C22.4203 11.3854 23.9289 10.413 25.6487 10.413C27.3685 10.413 28.8772 11.3713 29.4957 12.8652C29.6466 13.2457 29.5711 13.6685 29.2845 13.9644C29.0582 14.1899 28.7414 14.3027 28.4397 14.3027Z" fill="#97A3AB"/>
<path d="M25.6336 40.8964C24.1401 40.8964 22.6918 40.3327 21.6358 39.3462C20.5797 38.3597 19.9763 37.0067 19.9763 35.6115H22.2392C22.2392 36.443 22.6013 37.2604 23.2349 37.8523C23.8685 38.4442 24.7435 38.7825 25.6336 38.7825C27.5043 38.7825 29.028 37.3591 29.028 35.6115H31.2909C31.2909 38.5288 28.7565 40.8964 25.6336 40.8964Z" fill="#97A3AB"/>
<ellipse cx="33.569" cy="15.5147" rx="4.34483" ry="4.05882" fill="#4D5DFA"/>
</svg>
